<svg width="76" height="59" viewBox="0 0 76 59" fill="none" xmlns="http://www.w3.org/2000/svg">
<path d="M73.3313 0.253105C75.2701 0.843053 75.8577 2.91241 74.5789 4.4785C71.053 8.77054 67.5239 13.0316 63.9979 17.3236C52.9927 30.7115 41.9844 44.0683 30.9792 57.4561C29.729 58.9881 28.1664 59.2995 26.9167 58.2658C26.2587 57.7365 26.0302 57.0396 25.8872 56.2402C24.525 47.6458 23.1597 39.0204 21.8291 30.4229C21.7207 29.6514 21.3844 29.1528 20.8242 28.6452C14.3438 22.7486 7.89196 16.8178 1.4116 10.9212C0.467362 10.0762 -0.041219 9.12535 0.410054 7.89163C0.861327 6.65792 1.83738 6.21695 3.10275 6.12274C25.7919 4.1855 48.4809 2.24825 71.1385 0.314135C71.8643 0.242153 72.6348 -0.0219871 73.3028 0.287226L73.3313 0.253105ZM30.3618 49.9455C40.9713 37.0663 51.5208 24.2242 62.0987 11.3481C61.8086 11.3143 61.6254 11.3951 61.4422 11.4758C50.1729 17.3806 38.872 23.2884 27.5996 29.1622C27.0847 29.4323 27.0176 29.7206 27.1014 30.2442C28.11 36.5583 29.1156 42.8414 30.1242 49.1556C30.1487 49.4034 30.1102 49.6576 30.3934 49.9424L30.3618 49.9455ZM9.23622 10.7709C9.37392 11.1953 9.64482 11.3562 9.88723 11.5512C14.5484 15.8135 19.2095 20.0758 23.8707 24.3381C24.3616 24.7901 24.718 24.8486 25.3246 24.5381C36.4392 18.68 47.5914 12.8807 58.7091 7.05358C58.9808 6.90148 59.2933 6.83918 59.5405 6.43921C42.7303 7.88729 25.9833 9.32912 9.23622 10.7709Z" fill="#FFFFFF"/>
</svg>
