<svg width="900" height="376" viewBox="0 0 1142 376" fill="none" xmlns="http://www.w3.org/2000/svg">
<path d="M1109.59 3.87961C1115.47 5.17183 1117.67 10.9431 1114.21 15.6544C1104.67 28.5704 1095.11 41.3989 1085.57 54.3149C1055.78 94.6043 1025.98 134.806 996.195 175.095C992.814 179.704 988.24 180.902 984.303 178.209C982.233 176.834 981.404 174.897 980.805 172.651C974.893 148.467 968.965 124.195 963.145 99.9957C962.656 97.8221 961.549 96.4705 959.774 95.1377C939.244 79.6506 918.791 64.0607 898.26 48.5736C895.272 46.3573 893.555 43.7532 894.628 40.1526C895.7 36.5521 898.504 35.1027 902.242 34.5824C969.221 24.5467 1036.2 14.5109 1103.09 4.49043C1105.23 4.14091 1107.46 3.23569 1109.51 3.98238L1109.59 3.87961ZM992.731 153.847C1021.45 115.084 1050 76.4382 1078.63 37.6901C1077.76 37.6517 1077.23 37.9181 1076.71 38.1843C1044.51 57.2331 1012.22 76.297 980.014 95.2582C978.542 96.1294 978.406 96.963 978.769 98.4362C983.135 116.202 987.486 133.881 991.853 151.646C991.98 152.347 991.921 153.078 992.824 153.832L992.731 153.847ZM921.471 46.5862C921.972 47.7663 922.812 48.1701 923.575 48.6766C938.346 59.8759 953.118 71.0752 967.889 82.2745C969.446 83.4626 970.517 83.5581 972.252 82.5538C1004 63.6685 1035.87 44.9432 1067.63 26.1456C1068.4 25.6586 1069.32 25.419 1069.96 24.2316C1020.34 31.7034 970.906 39.1448 921.471 46.5862Z" fill="#1A998B" fill-opacity="0.2"/>
<path d="M9 366.167C339.914 346.273 349.278 253.969 507.037 200.879C574.807 179.89 657.02 159.687 628.896 92.5529C595.097 11.872 492.32 39.9615 487.268 102.399C487.268 137.587 491.899 173.757 575.601 203.671C679.778 240.903 842.872 176.509 921.751 121.258" stroke="#15A091" stroke-opacity="0.2" stroke-width="18" stroke-linecap="round" stroke-dasharray="40 40"/>
</svg>
