<svg xmlns="http://www.w3.org/2000/svg" width="15" height="25" viewBox="0 0 15 25" fill="none">
  <mask id="path-1-inside-1_318_139" fill="white">
    <path fill-rule="evenodd" clip-rule="evenodd" d="M0.000150633 0H15.0002V17.8572H15.0001L15.0001 25L7.50003 18.4523L2.92595e-07 25L0 17.8571H0.000150633V0Z"/>
  </mask>
  <path d="M15.0002 0H16.0002V-1H15.0002V0ZM0.000150633 0V-1H-0.999849V0H0.000150633ZM15.0002 17.8572V18.8572H16.0002V17.8572H15.0002ZM15.0001 17.8572V16.8572H14.0001V17.8572H15.0001ZM15.0001 25L14.3424 25.7533L16.0001 27.2005V25H15.0001ZM7.50003 18.4523L8.15768 17.699L7.50003 17.1249L6.84237 17.699L7.50003 18.4523ZM2.92595e-07 25H-1L-1 27.2005L0.657658 25.7533L2.92595e-07 25ZM0 17.8571V16.8571H-1V17.8571H0ZM0.000150633 17.8571V18.8571H1.00015V17.8571H0.000150633ZM15.0002 -1H0.000150633V1H15.0002V-1ZM16.0002 17.8572V0H14.0002V17.8572H16.0002ZM15.0001 18.8572H15.0002V16.8572H15.0001V18.8572ZM16.0001 25L16.0001 17.8572H14.0001L14.0001 25H16.0001ZM6.84237 19.2057L14.3424 25.7533L15.6577 24.2467L8.15768 17.699L6.84237 19.2057ZM0.657658 25.7533L8.15768 19.2057L6.84237 17.699L-0.657657 24.2467L0.657658 25.7533ZM-1 17.8571L-1 25H1L1 17.8571H-1ZM0.000150633 16.8571H0V18.8571H0.000150633V16.8571ZM-0.999849 0V17.8571H1.00015V0H-0.999849Z" fill="#15A091" mask="url(#path-1-inside-1_318_139)"/>
</svg>