<svg width="16" height="16" viewBox="0 0 16 16" fill="none" xmlns="http://www.w3.org/2000/svg">
<path d="M8 0C8 0 3.0512 4.74667 0.2856 7.31733C0.1232 7.48089 0 7.71911 0 8C0 8.49156 0.3576 8.88889 0.8 8.88889H2.4V15.1111C2.4 15.6027 2.7576 16 3.2 16H5.6C6.0424 16 6.4 15.6018 6.4 15.1111V11.5556H9.6V15.1111C9.6 15.6018 9.9576 16 10.4 16H12.8C13.2424 16 13.6 15.6027 13.6 15.1111V8.88889H15.2C15.6424 8.88889 16 8.49156 16 8C16 7.71911 15.8768 7.48089 15.6936 7.31733C12.9472 4.74667 8 0 8 0Z" fill="white"/>
</svg>
