<svg width="273" height="225" viewBox="0 0 273 225" fill="none" xmlns="http://www.w3.org/2000/svg">
<path d="M48.7031 151.21C46.5892 151.332 44.7211 151.137 43.148 150.574C38.7727 149.035 35.7247 145.833 34.1024 141.043C26.802 119.513 50.0797 72.4434 51.0629 70.4638C51.3824 69.8284 52.1198 69.4863 52.7343 69.7307C53.3243 69.9751 53.5701 70.6838 53.2505 71.3192C53.0047 71.808 29.4567 119.39 36.4621 139.992C37.8878 144.147 40.4933 146.933 44.2541 148.253C49.2193 149.988 58.1912 147.446 67.6792 141.63C70.3093 140.017 73.0132 138.111 75.6925 135.96C70.9239 117.289 72.3004 100.524 80.7315 93.9252C81.6409 93.2164 86.6799 89.2818 91.596 90.406C97.2249 91.7012 98.5523 98.6663 98.6752 99.2773C99.3634 103.236 98.1098 107.049 95.0127 113.036C91.9647 118.877 86.9503 127.186 78.765 136.375C80.3873 138.502 82.3292 139.919 84.5414 140.555C92.9971 143.072 105.779 134.982 114.923 121.346L115.119 121.126C115.119 121.126 120.085 115.92 124.288 100.328C125.099 90.5282 127.901 81.5835 128.098 80.9481L130.482 81.1681C129.45 88.793 128.147 95.1227 126.746 100.353C126.205 106.853 126.599 113.647 129.352 118.217C131.244 121.394 134.169 123.227 138.004 123.667C137.93 123.667 146.533 123.081 154.768 103.921L155.628 99.766C155.972 88.2309 160.47 76.0603 160.741 75.3272L163.076 75.6938L158.086 99.6194C157.939 104.385 158.553 108.979 160.593 112.401C162.683 115.92 166.124 117.826 170.843 118.095L171.138 118.144C171.556 118.291 181.782 121.443 189.77 107.318C189.77 107.318 193.605 97.8354 194.686 90.7481L197.071 90.2349L207.075 120.001C207.271 120.612 206.927 121.346 206.288 121.639C205.649 121.932 204.961 121.688 204.74 121.052L196.137 95.4892C194.563 101.721 192.081 107.806 191.958 108.124C183.281 123.496 171.753 120.955 170.253 120.539C164.87 120.197 160.888 117.949 158.455 113.867C157.226 111.79 156.464 109.395 156.046 106.78C147.221 125.769 137.93 126.136 137.561 126.136C132.867 125.622 129.45 123.447 127.188 119.708C125.345 116.653 124.46 112.768 124.19 108.662C120.798 118.095 117.528 121.932 116.84 122.665C106.86 137.475 93.1937 145.833 83.5582 142.974C80.9281 142.192 78.6421 140.555 76.7494 138.086C74.0702 140.212 71.3663 142.119 68.7362 143.707C61.2883 148.277 54.2337 150.892 48.7277 151.234L48.7031 151.21ZM88.9167 94.0718C87.1961 94.1695 84.8364 94.9516 81.8622 97.3955C72.0791 105.436 76.3807 127.749 77.8555 134.127C86.1391 126.967 93.6362 117.435 95.9713 106.951C96.2171 105.802 96.4138 104.629 96.5367 103.456C96.5367 103.456 96.6104 102.357 96.5367 101.403C96.3646 99.1551 94.177 94.805 90.3916 94.1451C89.9737 94.0718 89.4821 94.0229 88.9167 94.0718Z" stroke="#15A091" stroke-width="5.448" stroke-linecap="round" stroke-linejoin="round"/>
<path d="M177.505 157.124C177.259 157.124 177.013 157.124 176.792 157.124C174.26 156.904 173.424 154.802 173.228 154.216C172.908 153.556 171.384 150.11 173.031 145.833C174.506 141.972 178.07 138.673 183.576 136.009C187.337 134.2 192.843 132.807 199.037 131.732C212.925 109.517 218.087 86.2269 218.136 85.9581C218.284 85.2738 218.923 84.7851 219.611 84.8339C220.275 84.8828 220.692 85.4938 220.545 86.1536C220.496 86.4225 215.481 109.077 202.06 131.243C220.569 127.578 240.971 122.152 242.274 122.128C242.938 122.128 243.429 122.665 243.331 123.35C243.257 124.034 242.716 124.62 241.954 124.596C241.635 124.596 218.578 130.975 200.364 133.956C199.012 136.082 197.562 138.208 196.038 140.286C188.05 151.21 181.831 156.88 177.529 157.149L177.505 157.124ZM197.243 134.494C192.056 135.471 187.509 136.693 184.363 138.208C179.545 140.53 176.497 143.316 175.292 146.444C173.916 150.037 175.464 152.896 175.464 152.921L175.563 153.165C175.563 153.165 175.956 154.558 177.333 154.656C178.832 154.754 183.502 153.458 194.072 138.991C195.153 137.5 196.21 135.985 197.218 134.469L197.243 134.494Z" stroke="#15A091" stroke-width="5.448" stroke-linecap="round" stroke-linejoin="round"/>
<path d="M111.531 99.8394C110.966 99.8639 110.499 99.5217 110.401 98.9596C110.302 98.2998 110.769 97.6155 111.433 97.42L140.118 89.1352C140.782 88.9397 141.421 89.3063 141.52 89.9661C141.618 90.626 141.151 91.3103 140.487 91.5058L111.802 99.7906C111.802 99.7906 111.605 99.8394 111.531 99.8394Z" stroke="#15A091" stroke-width="5.448" stroke-linecap="round" stroke-linejoin="round"/>
<path d="M147.001 94.9027C146.411 94.9516 145.919 94.5361 145.87 93.9251C145.821 93.2653 146.337 92.6054 147.001 92.4588L175.932 86.2758C176.62 86.1291 177.185 86.5446 177.259 87.2289C177.308 87.8887 176.792 88.5486 176.128 88.6952L147.197 94.8783C147.197 94.8783 147.074 94.8783 147.001 94.9027Z" stroke="#15A091" stroke-width="5.448" stroke-linecap="round" stroke-linejoin="round"/>
</svg>
