<svg width="120" height="52" viewBox="0 0 120 52" fill="none" xmlns="http://www.w3.org/2000/svg">
<path d="M10.8192 47.0055C9.65514 47.0734 8.62645 46.9648 7.76018 46.6525C5.35086 45.7971 3.67247 44.0185 2.77912 41.3574C-1.24091 29.3959 11.5772 3.24635 12.1186 2.1466C12.2946 1.79359 12.7006 1.60351 13.039 1.73928C13.3639 1.87505 13.4992 2.26879 13.3233 2.62179C13.1879 2.89334 0.220918 29.3281 4.07853 40.7736C4.86359 43.0817 6.29834 44.6295 8.36927 45.3627C11.1034 46.3267 16.0439 44.9146 21.2686 41.6833C22.7169 40.7872 24.2058 39.7282 25.6811 38.5334C23.0553 28.1604 23.8133 18.8465 28.4559 15.1807C28.9567 14.7869 31.7315 12.601 34.4386 13.2255C37.5382 13.9451 38.2691 17.8146 38.3368 18.1541C38.7158 20.3536 38.0255 22.4716 36.32 25.798C34.6416 29.0429 31.8804 33.6592 27.3731 38.7642C28.2664 39.9454 29.3357 40.7329 30.5539 41.0859C35.2101 42.4843 42.2486 37.9903 47.2838 30.4142L47.392 30.292C47.392 30.292 50.1262 27.4001 52.4408 18.7379C52.8874 13.2934 54.4305 8.3242 54.5388 7.9712L55.8517 8.09339C55.2832 12.3295 54.5658 15.8459 53.7943 18.7515C53.4965 22.363 53.7131 26.1374 55.2291 28.6764C56.2713 30.4414 57.882 31.4597 59.9936 31.7041C59.953 31.7041 64.6904 31.3782 69.2248 20.7337L69.6985 18.4256C69.888 12.0172 72.365 5.25576 72.5139 4.84845L73.7998 5.05211L71.0521 18.3441C70.9708 20.9917 71.3092 23.5442 72.4327 25.445C73.5832 27.4001 75.4782 28.4591 78.077 28.6085L78.2394 28.6356C78.4695 28.7171 84.1003 30.4685 88.4993 22.6209C88.4993 22.6209 90.6108 17.353 91.2064 13.4156L92.5193 13.1305L98.0283 29.6675C98.1366 30.0069 97.947 30.4142 97.5951 30.5772C97.2432 30.7401 96.8642 30.6043 96.7424 30.2513L92.005 16.0496C91.1387 19.5118 89.7716 22.8925 89.7039 23.069C84.9259 31.609 78.5778 30.197 77.7521 29.9662C74.7879 29.7761 72.5951 28.527 71.2551 26.2596C70.5783 25.1056 70.1587 23.775 69.9286 22.3222C65.0694 32.8717 59.953 33.0753 59.7499 33.0753C57.1647 32.7902 55.2832 31.5819 54.038 29.5046C53.0228 27.8074 52.5355 25.6486 52.3866 23.3677C50.5187 28.6085 48.7185 30.7401 48.3395 31.1474C42.8441 39.3751 35.3184 44.0185 30.0125 42.43C28.5642 41.9955 27.3054 41.0859 26.2632 39.7146C24.7878 40.8958 23.2989 41.9548 21.8506 42.8373C17.7494 45.3763 13.8647 46.829 10.8327 47.0191L10.8192 47.0055ZM32.9632 15.2621C32.0157 15.3164 30.7163 15.7509 29.0786 17.1086C23.6914 21.5755 26.0601 33.9714 26.8723 37.5151C31.4337 33.537 35.562 28.2419 36.8479 22.4173C36.9833 21.7792 37.0916 21.1275 37.1592 20.4758C37.1592 20.4758 37.1998 19.8648 37.1592 19.3353C37.0645 18.0862 35.8598 15.6694 33.7754 15.3029C33.5453 15.2621 33.2745 15.235 32.9632 15.2621Z" stroke="#15A091" strokeWidth="3" strokeLinecap="round" strokeLinejoin="round"/>
<path d="M81.7448 50.2912C81.6095 50.2912 81.4741 50.2912 81.3523 50.2912C79.9581 50.169 79.4979 49.0014 79.3896 48.6755C79.2137 48.3089 78.3745 46.3946 79.2814 44.0186C80.0935 41.8734 82.0561 40.0405 85.0881 38.5605C87.159 37.5558 90.191 36.7819 93.6019 36.1845C101.249 23.8429 104.092 10.9039 104.119 10.7545C104.2 10.3744 104.552 10.1028 104.931 10.13C105.297 10.1571 105.527 10.4966 105.445 10.8632C105.418 11.0125 102.657 23.5985 95.2668 35.913C105.459 33.8764 116.693 30.8623 117.411 30.8487C117.776 30.8487 118.047 31.1474 117.993 31.5276C117.952 31.9077 117.654 32.2336 117.235 32.22C117.059 32.22 104.363 35.7637 94.3328 37.4201C93.5884 38.6013 92.7898 39.7825 91.9506 40.9365C87.5515 47.0055 84.1271 50.1554 81.7584 50.3048L81.7448 50.2912ZM92.6138 37.7188C89.7578 38.2618 87.2538 38.9407 85.5212 39.7825C82.8683 41.0723 81.1899 42.6201 80.5266 44.358C79.7686 46.3538 80.6214 47.9424 80.6214 47.9559L80.6755 48.0917C80.6755 48.0917 80.8921 48.8656 81.6501 48.9199C82.4757 48.9742 85.0475 48.2546 90.8677 40.217C91.4633 39.3888 92.0453 38.547 92.6003 37.7052L92.6138 37.7188Z" stroke="#15A091" strokeWidth="3" strokeLinecap="round" strokeLinejoin="round"/>
<path d="M45.416 18.4664C45.1046 18.48 44.8475 18.2899 44.7933 17.9776C44.7392 17.611 44.9964 17.2309 45.3618 17.1222L61.1577 12.5196C61.5232 12.411 61.8751 12.6146 61.9292 12.9812C61.9834 13.3478 61.7262 13.728 61.3608 13.8366L45.5649 18.4392C45.5649 18.4392 45.4566 18.4664 45.416 18.4664Z" stroke="#15A091" strokeWidth="3" strokeLinecap="round" strokeLinejoin="round"/>
<path d="M64.9477 15.7237C64.6228 15.7509 64.3521 15.5201 64.325 15.1806C64.298 14.8141 64.5822 14.4475 64.9477 14.366L80.8789 10.931C81.2579 10.8495 81.5692 11.0803 81.6098 11.4605C81.6369 11.8271 81.3527 12.1937 80.9872 12.2751L65.0559 15.7101C65.0559 15.7101 64.9883 15.7101 64.9477 15.7237Z" stroke="#15A091" strokeWidth="3" strokeLinecap="round" strokeLinejoin="round"/>
</svg>
