<svg width="16" height="16" viewBox="0 0 16 16" fill="none" xmlns="http://www.w3.org/2000/svg">
<circle cx="8" cy="3.5" r="3.5" fill="white"/>
<path d="M0 16C9.17429e-08 14.9494 0.206926 13.9091 0.608963 12.9385C1.011 11.9679 1.60028 11.086 2.34315 10.3431C3.08602 9.60028 3.96793 9.011 4.93853 8.60896C5.90914 8.20693 6.94943 8 8 8C9.05058 8 10.0909 8.20693 11.0615 8.60896C12.0321 9.011 12.914 9.60028 13.6569 10.3431C14.3997 11.086 14.989 11.9679 15.391 12.9385C15.7931 13.9091 16 14.9494 16 16L8 16L0 16Z" fill="white"/>
</svg>
