<svg width="102" height="102" viewBox="0 0 102 102" fill="none" xmlns="http://www.w3.org/2000/svg">
<path d="M47.2748 23.7786C47.9405 19.5293 54.0595 19.5293 54.7252 23.7786C55.2314 27.0101 59.3304 28.1084 61.3846 25.563C64.0858 22.2158 69.3849 25.2753 67.8368 29.2882C66.6594 32.3398 69.6602 35.3406 72.7118 34.1632C76.7247 32.6151 79.7842 37.9142 76.437 40.6154C73.8916 42.6696 74.9899 46.7686 78.2214 47.2748C82.4707 47.9405 82.4707 54.0595 78.2214 54.7252C74.9899 55.2314 73.8916 59.3304 76.437 61.3846C79.7842 64.0858 76.7247 69.3849 72.7118 67.8368C69.6602 66.6594 66.6594 69.6602 67.8368 72.7118C69.3849 76.7247 64.0858 79.7842 61.3846 76.437C59.3304 73.8916 55.2314 74.9899 54.7252 78.2214C54.0595 82.4707 47.9405 82.4707 47.2748 78.2214C46.7686 74.9899 42.6696 73.8916 40.6154 76.437C37.9142 79.7842 32.6151 76.7247 34.1632 72.7118C35.3406 69.6602 32.3398 66.6594 29.2882 67.8368C25.2753 69.3849 22.2158 64.0858 25.563 61.3846C28.1084 59.3304 27.0101 55.2314 23.7786 54.7252C19.5293 54.0595 19.5293 47.9405 23.7786 47.2748C27.0101 46.7686 28.1084 42.6696 25.563 40.6154C22.2158 37.9142 25.2753 32.6151 29.2882 34.1632C32.3398 35.3406 35.3406 32.3398 34.1632 29.2882C32.6151 25.2753 37.9142 22.2158 40.6154 25.563C42.6696 28.1084 46.7686 27.0101 47.2748 23.7786Z" fill="#15A091"/>
<path d="M37 49L49.5 63L65.5 40" stroke="white" stroke-width="7"/>
</svg>
